<svg xmlns="http://www.w3.org/2000/svg" id="SvgjsSvg11318" width="4096" height="4096" version="1.1" xmlns:xlink="http://www.w3.org/1999/xlink" xmlns:svgjs="http://svgjs.com/svgjs"><defs id="SvgjsDefs11319"></defs><g id="SvgjsG11320" transform="translate(328, 328) scale(34.4)" opacity="1"><defs id="SvgjsDefs3696"><linearGradient id="SvgjsLinearGradient5tlFhmSbgJ" gradientUnits="userSpaceOnUse" x1="4.2632564145606005e-14" y1="99.99999999999997" x2="99.99999999999999" y2="-3.5527136788005e-15"><stop id="SvgjsStop3699" stop-color="#053236" offset="0.458"></stop><stop id="SvgjsStop3700" stop-color="#8686a5" offset="1"></stop></linearGradient><linearGradient id="SvgjsLinearGradientV56MF8zgEKA" gradientUnits="userSpaceOnUse" x1="-64.13749999999997" y1="53.94249999999999" x2="65.39749999999998" y2="-75.5925"><stop id="SvgjsStop3704" stop-color="#ddb354" offset="0.0399"></stop><stop id="SvgjsStop3705" stop-color="#efb810" offset="0.423"></stop></linearGradient></defs><g id="SvgjsG3697" transform="scale(0.35100035100035104)" opacity="1"><g id="SvgjsG3701" class="wmuXQi5Kv" transform="translate(0, 0) scale(2.8489999999999998)" light-content="false" non-strokable="false" fill="url(#SvgjsLinearGradient5tlFhmSbgJ)"><path d="M24 0h76v76c0 13.255-10.745 24-24 24H0V24C0 10.745 10.745 0 24 0z"></path></g><g id="SvgjsG3702" class="HrpJYjiBud" transform="translate(225.8552852653065, 62.43781012026912) scale(0.6541601432650834)" light-content="true" non-strokable="false" fill="#850bcb"><path d="M64.734 28.797a.992.992 0 0 0-.73-.594.992.992 0 0 0-.899.274L28.578 63.063c-.234.234-.336.57-.273.898a.98.98 0 0 0 .593.727l59.711 25.23a1.003 1.003 0 0 0 1.098-.215.998.998 0 0 0 .215-1.094L64.734 28.793zM61.75 76.399l14.664-14.715 5.265 12.508-7.473 7.473zM46.648 70.02l23.398-23.453 5.527 13.13L59.76 75.562zm16.82-39.074l5.738 13.63L44.659 69.18l-13.617-5.754zm12.727 51.56l6.32-6.325 4.605 10.94-10.93-4.616zm-7.484-66.881a.998.998 0 1 0 1.27-1.543c-6.044-4.984-13.548-5.43-17.82-1.066-1.891 1.867-3.215 4.293-3.813 6.78-2.582.571-5.129 1.927-7.063 3.9-3.628 3.698-9.171 4.171-12.359 1.054a1 1 0 1 0-1.398 1.43c3.973 3.89 10.785 3.406 15.184-1.082 1.453-1.485 3.352-2.57 5.3-3.14-.085 1.269.028 2.515.364 3.667.742 2.547 2.86 4.399 5.406 4.715.246.031.485.047.719.047 1.242 0 2.3-.434 3.098-1.274.937-.992 1.304-2.332 1.054-3.879-.406-2.539-2.312-4.648-4.855-5.367a10.297 10.297 0 0 0-3.285-.36c.586-1.866 1.64-3.675 3.066-5.077 3.543-3.613 9.906-3.11 15.133 1.199zm-15.457 6.16c1.797.508 3.14 1.985 3.426 3.762.148.933-.024 1.648-.531 2.187-.504.532-1.196.73-2.114.618-1.722-.22-3.226-1.54-3.734-3.29-.317-1.085-.383-2.289-.23-3.515 1.117-.11 2.199-.04 3.187.242zM28.34 47.949c-.727-1.156-1.938-1.84-3.5-1.98-2.566-.239-5.078 1.093-6.402 3.378-.54.934-.926 1.985-1.156 3.094-1.668-1.031-3.157-2.5-4.165-4.226-2.625-4.325-.566-10.367 4.899-14.367a1 1 0 1 0-1.184-1.614c-6.324 4.63-8.605 11.785-5.437 17.004 1.34 2.297 3.367 4.176 5.629 5.368-.086 2.644.601 5.445 2.03 7.804 2.688 4.43 1.778 9.918-2.03 12.234-.473.29-.621.903-.336 1.375a.998.998 0 0 0 1.375.336c4.75-2.89 5.965-9.61 2.703-14.98-1.078-1.773-1.664-3.883-1.735-5.914 1.207.399 2.442.598 3.645.555 2.648-.086 4.969-1.688 5.906-4.07.57-1.454.484-2.836-.246-4zm-1.613 3.27c-.637 1.617-2.29 2.742-4.11 2.804-1.133.028-2.312-.195-3.465-.644.168-1.106.508-2.14 1.02-3.028.938-1.613 2.695-2.562 4.492-2.39.942.086 1.594.43 1.988 1.054.391.618.415 1.34.079 2.2zm46.89-31.028a5.702 5.702 0 0 0 5.7 5.695c3.144 0 5.698-2.554 5.698-5.695s-2.554-5.695-5.699-5.695a5.702 5.702 0 0 0-5.699 5.695zm5.695-3.7c2.04 0 3.7 1.657 3.7 3.696s-1.66 3.695-3.7 3.695-3.699-1.656-3.699-3.695 1.66-3.695 3.7-3.695zM34.785 37.742c0 3.14 2.555 5.695 5.7 5.695s5.698-2.554 5.698-5.695c0-3.14-2.554-5.695-5.699-5.695s-5.699 2.554-5.699 5.695zm9.398 0a3.7 3.7 0 0 1-7.398 0 3.7 3.7 0 0 1 7.398 0zM12.547 22.836a1 1 0 0 0 .813.535l4.882.36 3.227 3.68a1 1 0 0 0 .914.323c.344-.058.629-.289.762-.609l1.851-4.531 4.5-1.93a.996.996 0 0 0 .594-.773.995.995 0 0 0-.344-.91l-3.742-3.16-.445-4.876a1.01 1.01 0 0 0-.551-.804 1.002 1.002 0 0 0-.973.047l-4.164 2.578-4.777-1.082a1 1 0 0 0-1.191 1.21l1.168 4.75-2.504 4.208a1.002 1.002 0 0 0-.028.972zm4.57-5.262l-.879-3.578 3.598.813a.98.98 0 0 0 .746-.125l3.137-1.942.336 3.672a.984.984 0 0 0 .351.672l2.817 2.379-3.39 1.453a.997.997 0 0 0-.532.54l-1.395 3.413-2.433-2.773a.991.991 0 0 0-.68-.336l-3.68-.27L17 18.324a.99.99 0 0 0 .11-.75zm72.699 16.278a1.021 1.021 0 0 0-.879-.422l-4.89.297-3.692-3.215a1.008 1.008 0 0 0-.953-.203.991.991 0 0 0-.672.703l-1.227 4.738-4.203 2.516a1.003 1.003 0 0 0-.023 1.703l4.129 2.63 1.094 4.769a1.007 1.007 0 0 0 .972.777c.227 0 .453-.078.637-.227l3.777-3.113 4.88.434a.991.991 0 0 0 .89-.399.995.995 0 0 0 .129-.965l-1.793-4.554 1.918-4.5a1 1 0 0 0-.102-.969zm-3.824 5.82l1.351 3.43-3.675-.328a.955.955 0 0 0-.723.226l-2.848 2.344-.824-3.594a1.002 1.002 0 0 0-.437-.62l-3.11-1.981 3.164-1.895a.98.98 0 0 0 .453-.609l.922-3.57 2.781 2.422a.99.99 0 0 0 .72.242l3.679-.223L86 38.906a1.017 1.017 0 0 0-.012.759zm-48.363 38.64l-.16-4.894a1.018 1.018 0 0 0-.5-.836.992.992 0 0 0-.973-.012l-4.305 2.328-4.703-1.363a1.001 1.001 0 0 0-1.261 1.14l.886 4.817-2.746 4.05a1 1 0 0 0 .696 1.551l4.851.649 3.004 3.867c.192.246.484.387.79.387.034 0 .07 0 .109-.008.343-.04.644-.25.796-.563l2.114-4.414 4.601-1.66a.993.993 0 0 0 .64-.734 1.001 1.001 0 0 0-.288-.93l-3.547-3.375zm-2.473 4.96a1 1 0 0 0-.562.509l-1.59 3.324-2.266-2.914a1.005 1.005 0 0 0-.656-.38l-3.656-.487 2.07-3.051a1 1 0 0 0 .157-.742l-.668-3.625 3.543 1.027c.25.074.523.043.753-.082l3.243-1.754.12 3.687a.995.995 0 0 0 .31.692l2.671 2.543-3.469 1.25z"></path></g><g id="SvgjsG3706" class="text" transform="translate(153.64900152263465, 153.47037597181398) scale(1)" light-content="true" fill="url(#SvgjsLinearGradientV56MF8zgEKA)"><path d="M-100.45 -14.82L-100.75 -19.21C-101.69 -19.58 -102.72 -19.93 -103.84 -20.24C-104.95 -20.55 -106.07 -20.71 -107.19 -20.71C-108.55 -20.71 -109.86 -20.45 -111.13 -19.94C-112.39 -19.44 -113.53 -18.73 -114.52 -17.82C-115.5 -16.91 -116.29 -15.83 -116.89 -14.58C-117.49 -13.33 -117.79 -11.97 -117.79 -10.49C-117.79 -8.85 -117.53 -7.37 -117.01 -6.05C-116.49 -4.73 -115.76 -3.59 -114.82 -2.65C-113.87 -1.7 -112.75 -0.98 -111.45 -0.47C-110.15 0.04 -108.7 0.29 -107.11 0.29C-106.65 0.29 -106.13 0.26 -105.56 0.19C-104.99 0.12 -104.42 0.01 -103.85 -0.13C-103.3 -0.26 -102.78 -0.41 -102.3 -0.59C-101.82 -0.77 -101.42 -0.95 -101.12 -1.15L-100.37 -5.72L-101.47 -5.72C-101.74 -4.32 -102.3 -3.15 -103.15 -2.23C-104.01 -1.32 -105.16 -0.86 -106.61 -0.86C-107.78 -0.86 -108.89 -1.09 -109.94 -1.55C-110.98 -2.02 -111.88 -2.67 -112.65 -3.5C-113.42 -4.36 -114.02 -5.39 -114.47 -6.58C-114.92 -7.78 -115.14 -9.1 -115.14 -10.57C-115.14 -11.89 -114.93 -13.09 -114.52 -14.19C-114.11 -15.29 -113.55 -16.23 -112.84 -17.01C-112.11 -17.8 -111.25 -18.41 -110.27 -18.85C-109.29 -19.28 -108.22 -19.5 -107.06 -19.5C-105.44 -19.5 -104.16 -19.13 -103.23 -18.39C-102.31 -17.65 -101.71 -16.46 -101.44 -14.82Z M-96.28 -7.97L-88.82 -7.97C-88.64 -7.97 -88.49 -7.98 -88.39 -8C-88.28 -8.02 -88.21 -8.05 -88.17 -8.11C-88.12 -8.16 -88.09 -8.24 -88.08 -8.35C-88.07 -8.45 -88.07 -8.61 -88.07 -8.8C-88.08 -9.59 -88.24 -10.27 -88.52 -10.85C-88.81 -11.43 -89.17 -11.9 -89.62 -12.28C-90.06 -12.65 -90.57 -12.93 -91.14 -13.12C-91.71 -13.31 -92.28 -13.4 -92.83 -13.4C-93.65 -13.4 -94.41 -13.24 -95.12 -12.91C-95.82 -12.58 -96.42 -12.1 -96.92 -11.48C-97.44 -10.85 -97.84 -10.09 -98.13 -9.19C-98.41 -8.29 -98.55 -7.27 -98.55 -6.13C-98.55 -5.22 -98.42 -4.37 -98.14 -3.6C-97.86 -2.82 -97.47 -2.14 -96.95 -1.55C-96.45 -0.98 -95.86 -0.53 -95.17 -0.2C-94.48 0.13 -93.74 0.29 -92.94 0.29C-91.81 0.29 -90.81 -0.01 -89.94 -0.63C-89.07 -1.24 -88.35 -2.03 -87.8 -3L-88.66 -3.5C-89.14 -2.92 -89.69 -2.44 -90.3 -2.09C-90.92 -1.73 -91.62 -1.55 -92.43 -1.55C-93.57 -1.55 -94.48 -1.98 -95.16 -2.85C-95.83 -3.71 -96.21 -4.81 -96.28 -6.13C-96.32 -6.61 -96.33 -7.02 -96.32 -7.36C-96.31 -7.7 -96.3 -7.9 -96.28 -7.97ZM-91.01 -9.15L-96.12 -9.15C-95.98 -10.06 -95.64 -10.8 -95.1 -11.37C-94.57 -11.94 -93.84 -12.23 -92.94 -12.23C-92.17 -12.23 -91.56 -11.94 -91.12 -11.38C-90.67 -10.82 -90.45 -10.25 -90.45 -9.68C-90.45 -9.45 -90.49 -9.31 -90.57 -9.24C-90.65 -9.18 -90.8 -9.15 -91.01 -9.15Z M-84.7 -17.79L-84.7 -3.02C-84.7 -2.22 -84.8 -1.7 -85 -1.47C-85.21 -1.24 -85.72 -1.12 -86.54 -1.12L-86.54 -0.13C-86.2 -0.15 -85.77 -0.16 -85.23 -0.16L-83.57 -0.16C-83 -0.16 -82.44 -0.16 -81.89 -0.15C-81.33 -0.14 -80.87 -0.13 -80.5 -0.13L-80.5 -1.12C-81.3 -1.12 -81.82 -1.26 -82.05 -1.54C-82.28 -1.81 -82.4 -2.31 -82.4 -3.02L-82.4 -18.81C-82.4 -19.22 -82.38 -19.72 -82.36 -20.32C-82.33 -20.92 -82.29 -21.45 -82.23 -21.94L-83.22 -21.94C-83.65 -21.56 -84.15 -21.25 -84.71 -21.01C-85.27 -20.77 -85.85 -20.6 -86.43 -20.49L-86.43 -19.69C-86.04 -19.69 -85.73 -19.68 -85.5 -19.65C-85.27 -19.62 -85.09 -19.55 -84.96 -19.42C-84.86 -19.3 -84.79 -19.11 -84.75 -18.85C-84.71 -18.59 -84.7 -18.24 -84.7 -17.79Z M-77.31 -17.79L-77.31 -3.02C-77.31 -2.22 -77.41 -1.7 -77.62 -1.47C-77.83 -1.24 -78.34 -1.12 -79.16 -1.12L-79.16 -0.13C-78.82 -0.15 -78.38 -0.16 -77.85 -0.16L-76.19 -0.16C-75.62 -0.16 -75.06 -0.16 -74.5 -0.15C-73.95 -0.14 -73.49 -0.13 -73.11 -0.13L-73.11 -1.12C-73.91 -1.12 -74.43 -1.26 -74.66 -1.54C-74.9 -1.81 -75.01 -2.31 -75.01 -3.02L-75.01 -18.81C-75.01 -19.22 -75 -19.72 -74.97 -20.32C-74.94 -20.92 -74.9 -21.45 -74.85 -21.94L-75.84 -21.94C-76.27 -21.56 -76.76 -21.25 -77.33 -21.01C-77.89 -20.77 -78.46 -20.6 -79.05 -20.49L-79.05 -19.69C-78.66 -19.69 -78.35 -19.68 -78.11 -19.65C-77.88 -19.62 -77.7 -19.55 -77.58 -19.42C-77.47 -19.3 -77.4 -19.11 -77.37 -18.85C-77.33 -18.59 -77.31 -18.24 -77.31 -17.79Z M-64.12 -6.47L-64.12 -2.94C-64.48 -2.55 -64.94 -2.18 -65.5 -1.83C-66.06 -1.48 -66.62 -1.31 -67.17 -1.31C-67.82 -1.31 -68.31 -1.44 -68.64 -1.69C-68.98 -1.94 -69.15 -2.44 -69.15 -3.21C-69.15 -3.96 -68.76 -4.58 -67.98 -5.07C-67.19 -5.56 -65.91 -6.03 -64.12 -6.47ZM-59.47 -1.31L-59.66 -2.19C-60.48 -1.62 -61.04 -1.38 -61.36 -1.47C-61.67 -1.56 -61.82 -2.07 -61.82 -3L-61.82 -10.22C-61.82 -11.24 -62.16 -12.02 -62.84 -12.56C-63.52 -13.1 -64.34 -13.38 -65.3 -13.38C-65.8 -13.38 -66.24 -13.3 -66.63 -13.15C-67.01 -13 -67.49 -12.76 -68.08 -12.44C-69.19 -11.85 -69.96 -11.34 -70.41 -10.9C-70.86 -10.46 -71.08 -9.99 -71.08 -9.47C-71.08 -9.15 -71.01 -8.89 -70.87 -8.68C-70.72 -8.48 -70.46 -8.37 -70.09 -8.37C-69.71 -8.37 -69.42 -8.49 -69.19 -8.72C-68.97 -8.95 -68.86 -9.29 -68.86 -9.74C-68.84 -10.33 -68.6 -10.81 -68.14 -11.18C-67.67 -11.56 -67.12 -11.74 -66.48 -11.74C-65.6 -11.74 -64.99 -11.52 -64.65 -11.08C-64.3 -10.63 -64.12 -10.03 -64.12 -9.28L-64.12 -7.54C-65.12 -7.24 -66.06 -6.95 -66.95 -6.66C-67.83 -6.38 -68.6 -6.05 -69.26 -5.67C-69.92 -5.3 -70.45 -4.87 -70.84 -4.39C-71.23 -3.91 -71.44 -3.32 -71.45 -2.62C-71.49 -1.78 -71.21 -1.09 -70.62 -0.54C-70.04 0.02 -69.29 0.29 -68.38 0.29C-67.41 0.29 -66.55 0.1 -65.8 -0.28C-65.04 -0.66 -64.47 -1.05 -64.1 -1.44C-64.08 -1.02 -63.91 -0.62 -63.6 -0.25C-63.29 0.11 -62.87 0.29 -62.33 0.29C-61.76 0.29 -61.24 0.12 -60.77 -0.23C-60.29 -0.58 -59.86 -0.94 -59.47 -1.31Z M-53.82 -10.81C-53.82 -11.2 -53.82 -11.62 -53.8 -12.07C-53.78 -12.51 -53.74 -12.95 -53.69 -13.38L-54.68 -13.38C-55.11 -13 -55.57 -12.72 -56.07 -12.52C-56.57 -12.32 -57.11 -12.18 -57.68 -12.09L-57.68 -11.26C-56.96 -11.26 -56.53 -11.14 -56.37 -10.9C-56.21 -10.66 -56.13 -10.1 -56.13 -9.23L-56.13 -3.02C-56.13 -2.59 -56.15 -2.25 -56.19 -1.99C-56.24 -1.73 -56.33 -1.54 -56.47 -1.42C-56.62 -1.29 -56.83 -1.21 -57.1 -1.18C-57.38 -1.14 -57.76 -1.12 -58.24 -1.12L-58.24 -0.13C-57.85 -0.15 -57.31 -0.16 -56.63 -0.17C-55.96 -0.18 -55.25 -0.19 -54.52 -0.19C-53.81 -0.19 -53.12 -0.18 -52.46 -0.17C-51.8 -0.16 -51.27 -0.15 -50.88 -0.13L-50.88 -1.12C-51.56 -1.12 -52.09 -1.15 -52.47 -1.19C-52.86 -1.24 -53.16 -1.32 -53.37 -1.44C-53.57 -1.59 -53.69 -1.78 -53.74 -2.03C-53.8 -2.28 -53.82 -2.61 -53.82 -3.02L-53.82 -8.64C-53.82 -8.96 -53.76 -9.27 -53.62 -9.55C-53.49 -9.84 -53.32 -10.08 -53.1 -10.27C-52.89 -10.49 -52.67 -10.66 -52.43 -10.78C-52.2 -10.91 -51.99 -10.97 -51.79 -10.97C-51.63 -10.97 -51.5 -10.93 -51.39 -10.85C-51.28 -10.77 -51.17 -10.68 -51.04 -10.59C-50.92 -10.5 -50.77 -10.42 -50.6 -10.35C-50.43 -10.28 -50.21 -10.25 -49.95 -10.25C-49.59 -10.25 -49.25 -10.39 -48.94 -10.69C-48.63 -10.98 -48.47 -11.34 -48.47 -11.77C-48.47 -12.36 -48.67 -12.78 -49.08 -13.03C-49.48 -13.28 -49.87 -13.4 -50.24 -13.4C-50.83 -13.4 -51.46 -13.14 -52.14 -12.63C-52.82 -12.11 -53.38 -11.5 -53.82 -10.81Z M-33.97 -11.26L-33.97 -19.1L-30.31 -19.1C-29.6 -19.1 -29.02 -19.06 -28.57 -18.98C-28.12 -18.9 -27.78 -18.74 -27.53 -18.51C-27.26 -18.26 -27.07 -17.91 -26.95 -17.47C-26.84 -17.02 -26.73 -16.43 -26.64 -15.68L-25.57 -15.68L-25.57 -20.22C-26.57 -20.19 -27.64 -20.17 -28.78 -20.16C-29.93 -20.15 -31.09 -20.14 -32.26 -20.14C-33.44 -20.14 -34.61 -20.15 -35.77 -20.16C-36.93 -20.17 -38.02 -20.19 -39.06 -20.22L-39.06 -19.23C-38.5 -19.23 -38.05 -19.21 -37.71 -19.15C-37.36 -19.1 -37.09 -18.99 -36.89 -18.83C-36.71 -18.67 -36.59 -18.44 -36.52 -18.12C-36.44 -17.81 -36.41 -17.39 -36.41 -16.85L-36.41 -3.75C-36.41 -3.21 -36.44 -2.77 -36.52 -2.42C-36.59 -2.07 -36.71 -1.81 -36.89 -1.63C-37.09 -1.44 -37.36 -1.3 -37.71 -1.23C-38.05 -1.16 -38.5 -1.12 -39.06 -1.12L-39.06 -0.16C-37.99 -0.18 -36.85 -0.19 -35.66 -0.2C-34.47 -0.21 -33.25 -0.21 -32.02 -0.21C-30.77 -0.21 -29.53 -0.21 -28.3 -0.2C-27.07 -0.19 -25.89 -0.18 -24.75 -0.16C-24.58 -0.87 -24.38 -1.65 -24.14 -2.47C-23.9 -3.3 -23.67 -4.08 -23.43 -4.82L-24.61 -4.82C-24.83 -4.1 -25.04 -3.52 -25.27 -3.06C-25.49 -2.61 -25.76 -2.26 -26.08 -2.01C-26.39 -1.74 -26.77 -1.56 -27.22 -1.46C-27.67 -1.36 -28.24 -1.31 -28.92 -1.31L-30.9 -1.31C-31.56 -1.31 -32.09 -1.33 -32.49 -1.38C-32.89 -1.42 -33.21 -1.53 -33.44 -1.71C-33.65 -1.89 -33.8 -2.14 -33.87 -2.46C-33.94 -2.78 -33.97 -3.21 -33.97 -3.75L-33.97 -9.84L-30.18 -9.84C-29.82 -9.84 -29.52 -9.81 -29.29 -9.75C-29.06 -9.69 -28.88 -9.56 -28.76 -9.36C-28.63 -9.17 -28.55 -8.89 -28.5 -8.53C-28.46 -8.18 -28.44 -7.7 -28.44 -7.12L-27.34 -7.12L-27.34 -13.72L-28.44 -13.72C-28.44 -12.71 -28.56 -12.04 -28.81 -11.73C-29.06 -11.42 -29.51 -11.26 -30.15 -11.26Z M-20.63 -9.76L-16.75 0.29L-15.97 0.29L-11.85 -9.84C-11.67 -10.27 -11.52 -10.62 -11.4 -10.89C-11.27 -11.16 -11.13 -11.37 -10.97 -11.53C-10.83 -11.69 -10.66 -11.8 -10.47 -11.86C-10.29 -11.93 -10.04 -11.96 -9.74 -11.96L-9.74 -13.03C-9.97 -13.01 -10.28 -13 -10.67 -12.99C-11.07 -12.98 -11.49 -12.97 -11.93 -12.97L-13.26 -12.97C-13.69 -12.97 -14.06 -12.99 -14.37 -13.03L-14.37 -11.93C-13.53 -11.93 -13.06 -11.81 -12.97 -11.57C-12.89 -11.33 -13 -10.81 -13.32 -10.01L-15.94 -3.42L-18.35 -9.95C-18.53 -10.4 -18.65 -10.75 -18.7 -11.02C-18.75 -11.29 -18.74 -11.49 -18.65 -11.64C-18.54 -11.76 -18.36 -11.85 -18.1 -11.89C-17.84 -11.94 -17.48 -11.96 -17.01 -11.96L-17.01 -13.03C-17.26 -12.99 -17.67 -12.97 -18.22 -12.96C-18.77 -12.95 -19.34 -12.95 -19.93 -12.95C-20.54 -12.95 -21.11 -12.95 -21.66 -12.96C-22.2 -12.97 -22.59 -12.99 -22.82 -13.03L-22.82 -11.96C-22.53 -11.96 -22.3 -11.94 -22.11 -11.92C-21.92 -11.89 -21.76 -11.81 -21.62 -11.66C-21.45 -11.52 -21.3 -11.3 -21.16 -11.01C-21.02 -10.71 -20.84 -10.3 -20.63 -9.76Z M-6.23 -7.97L1.23 -7.97C1.41 -7.97 1.55 -7.98 1.66 -8C1.77 -8.02 1.84 -8.05 1.87 -8.11C1.93 -8.16 1.96 -8.24 1.97 -8.35C1.98 -8.45 1.98 -8.61 1.98 -8.8C1.96 -9.59 1.81 -10.27 1.52 -10.85C1.24 -11.43 0.87 -11.9 0.43 -12.28C-0.02 -12.65 -0.53 -12.93 -1.1 -13.12C-1.67 -13.31 -2.23 -13.4 -2.78 -13.4C-3.6 -13.4 -4.36 -13.24 -5.07 -12.91C-5.77 -12.58 -6.38 -12.1 -6.88 -11.48C-7.39 -10.85 -7.79 -10.09 -8.08 -9.19C-8.36 -8.29 -8.51 -7.27 -8.51 -6.13C-8.51 -5.22 -8.37 -4.37 -8.09 -3.6C-7.82 -2.82 -7.42 -2.14 -6.9 -1.55C-6.4 -0.98 -5.81 -0.53 -5.12 -0.2C-4.44 0.13 -3.69 0.29 -2.89 0.29C-1.77 0.29 -0.77 -0.01 0.11 -0.63C0.98 -1.24 1.69 -2.03 2.25 -3L1.39 -3.5C0.91 -2.92 0.36 -2.44 -0.25 -2.09C-0.87 -1.73 -1.58 -1.55 -2.38 -1.55C-3.52 -1.55 -4.43 -1.98 -5.11 -2.85C-5.79 -3.71 -6.16 -4.81 -6.23 -6.13C-6.27 -6.61 -6.28 -7.02 -6.27 -7.36C-6.26 -7.7 -6.25 -7.9 -6.23 -7.97ZM-0.96 -9.15L-6.07 -9.15C-5.93 -10.06 -5.59 -10.8 -5.06 -11.37C-4.52 -11.94 -3.8 -12.23 -2.89 -12.23C-2.12 -12.23 -1.52 -11.94 -1.07 -11.38C-0.62 -10.82 -0.4 -10.25 -0.4 -9.68C-0.4 -9.45 -0.44 -9.31 -0.52 -9.24C-0.6 -9.18 -0.75 -9.15 -0.96 -9.15Z M7.68 -13.38L7.68 -13.38L6.66 -13.38C6.25 -13 5.8 -12.72 5.3 -12.52C4.8 -12.32 4.26 -12.18 3.69 -12.09L3.69 -11.26C4.41 -11.26 4.84 -11.14 5 -10.9C5.16 -10.66 5.24 -10.1 5.24 -9.23L5.24 -3.02C5.24 -2.31 5.13 -1.81 4.91 -1.54C4.69 -1.26 4.18 -1.12 3.4 -1.12L3.4 -0.13C3.63 -0.15 4.03 -0.16 4.6 -0.17C5.17 -0.18 5.78 -0.19 6.42 -0.19C7.06 -0.19 7.67 -0.18 8.24 -0.17C8.81 -0.16 9.23 -0.15 9.5 -0.13L9.5 -1.12C8.66 -1.12 8.12 -1.26 7.89 -1.54C7.66 -1.81 7.54 -2.31 7.54 -3.02L7.54 -9.98C7.74 -10.14 7.99 -10.32 8.28 -10.51C8.57 -10.71 8.88 -10.89 9.2 -11.05C9.52 -11.23 9.84 -11.37 10.15 -11.48C10.46 -11.58 10.74 -11.65 10.97 -11.66C11.79 -11.66 12.39 -11.49 12.77 -11.13C13.16 -10.77 13.35 -10.17 13.35 -9.31L13.35 -3.02C13.35 -2.31 13.24 -1.81 13.01 -1.54C12.79 -1.26 12.3 -1.12 11.53 -1.12L11.53 -0.13C11.76 -0.13 12.16 -0.14 12.73 -0.15C13.3 -0.16 13.91 -0.16 14.55 -0.16L16.37 -0.16L17.6 -0.16L17.6 -1.12C16.78 -1.12 16.25 -1.26 16.01 -1.54C15.77 -1.81 15.65 -2.31 15.65 -3.02L15.65 -9.28C15.65 -10.42 15.41 -11.4 14.93 -12.2C14.45 -13 13.59 -13.4 12.36 -13.4C11.9 -13.4 11.46 -13.34 11.05 -13.23C10.64 -13.11 10.25 -12.96 9.87 -12.76C9.48 -12.56 9.1 -12.34 8.72 -12.08C8.35 -11.82 7.95 -11.55 7.54 -11.26C7.54 -11.51 7.55 -11.81 7.57 -12.15C7.59 -12.48 7.62 -12.89 7.68 -13.38Z M22.63 -3.77L22.63 -11.18L26.89 -11.18L26.89 -12.65L22.63 -12.65L22.63 -15.89L21.45 -15.89C21.26 -14.75 20.94 -13.86 20.51 -13.22C20.07 -12.57 19.39 -12.14 18.49 -11.9L18.49 -11.18L20.33 -11.18L20.33 -2.49C20.33 -1.58 20.58 -0.89 21.08 -0.41C21.58 0.06 22.27 0.29 23.14 0.29C23.85 0.29 24.54 0.12 25.19 -0.21C25.84 -0.55 26.43 -1 26.97 -1.55L26.43 -2.33C26.11 -2.02 25.68 -1.77 25.15 -1.58C24.61 -1.38 24.22 -1.28 23.97 -1.28C23.58 -1.28 23.26 -1.45 23.01 -1.78C22.76 -2.11 22.63 -2.77 22.63 -3.77Z M49.46 0.03L56.9 -16.29L57.06 -3.88C57.06 -3.29 57.02 -2.82 56.94 -2.46C56.86 -2.1 56.72 -1.83 56.53 -1.63C56.31 -1.44 56.01 -1.3 55.63 -1.23C55.25 -1.16 54.75 -1.12 54.15 -1.12L54.15 -0.16L55.91 -0.16L58.37 -0.16L60.82 -0.16L62.63 -0.16L62.63 -1.12C61.95 -1.12 61.41 -1.16 61.01 -1.23C60.61 -1.3 60.3 -1.44 60.08 -1.66C59.85 -1.85 59.7 -2.13 59.62 -2.49C59.54 -2.84 59.49 -3.31 59.47 -3.88L59.17 -16.99C59.17 -17.79 59.34 -18.37 59.67 -18.73C60 -19.08 60.66 -19.26 61.66 -19.26L61.66 -20.3C61.47 -20.27 61.15 -20.24 60.73 -20.22C60.3 -20.21 59.84 -20.2 59.36 -20.2L57.98 -20.2C57.55 -20.2 57.22 -20.22 57.01 -20.25L49.41 -3.4L41.6 -20.28C41.4 -20.24 41.12 -20.22 40.74 -20.21C40.37 -20.2 39.97 -20.2 39.54 -20.2C39.11 -20.2 38.69 -20.2 38.27 -20.21C37.85 -20.22 37.5 -20.24 37.21 -20.28L37.21 -19.26C38.12 -19.26 38.76 -19.09 39.14 -18.75C39.51 -18.41 39.7 -17.82 39.7 -16.96L39.41 -3.88C39.37 -3.27 39.29 -2.79 39.18 -2.43C39.06 -2.08 38.87 -1.81 38.6 -1.63C38.35 -1.44 38.02 -1.31 37.61 -1.24C37.2 -1.18 36.69 -1.14 36.06 -1.12L36.06 -0.13C36.49 -0.15 37.02 -0.16 37.65 -0.17C38.29 -0.18 38.94 -0.19 39.62 -0.19C40.3 -0.19 40.95 -0.18 41.59 -0.17C42.22 -0.16 42.75 -0.16 43.18 -0.16L43.18 -1.1C42.27 -1.13 41.68 -1.35 41.41 -1.74C41.14 -2.13 41.01 -2.82 41.01 -3.8L41.22 -15.78L48.53 0.03Z M71.67 -6.47L71.67 -2.94C71.31 -2.55 70.85 -2.18 70.29 -1.83C69.73 -1.48 69.17 -1.31 68.62 -1.31C67.98 -1.31 67.49 -1.44 67.15 -1.69C66.81 -1.94 66.64 -2.44 66.64 -3.21C66.64 -3.96 67.03 -4.58 67.82 -5.07C68.6 -5.56 69.88 -6.03 71.67 -6.47ZM76.32 -1.31L76.14 -2.19C75.31 -1.62 74.75 -1.38 74.44 -1.47C74.12 -1.56 73.97 -2.07 73.97 -3L73.97 -10.22C73.97 -11.24 73.63 -12.02 72.95 -12.56C72.27 -13.1 71.45 -13.38 70.49 -13.38C69.99 -13.38 69.55 -13.3 69.17 -13.15C68.78 -13 68.3 -12.76 67.71 -12.44C66.6 -11.85 65.83 -11.34 65.38 -10.9C64.94 -10.46 64.71 -9.99 64.71 -9.47C64.71 -9.15 64.78 -8.89 64.93 -8.68C65.07 -8.48 65.33 -8.37 65.7 -8.37C66.08 -8.37 66.38 -8.49 66.6 -8.72C66.82 -8.95 66.93 -9.29 66.93 -9.74C66.95 -10.33 67.19 -10.81 67.66 -11.18C68.12 -11.56 68.67 -11.74 69.31 -11.74C70.19 -11.74 70.8 -11.52 71.15 -11.08C71.49 -10.63 71.67 -10.03 71.67 -9.28L71.67 -7.54C70.67 -7.24 69.73 -6.95 68.85 -6.66C67.96 -6.38 67.19 -6.05 66.53 -5.67C65.87 -5.3 65.35 -4.87 64.95 -4.39C64.56 -3.91 64.36 -3.32 64.34 -2.62C64.3 -1.78 64.58 -1.09 65.17 -0.54C65.76 0.02 66.5 0.29 67.41 0.29C68.38 0.29 69.24 0.1 70 -0.28C70.75 -0.66 71.32 -1.05 71.69 -1.44C71.71 -1.02 71.88 -0.62 72.19 -0.25C72.5 0.11 72.93 0.29 73.46 0.29C74.03 0.29 74.55 0.12 75.03 -0.23C75.5 -0.58 75.93 -0.94 76.32 -1.31Z M79.1 -4.25L78.06 -4.25L78.44 -0.7C78.94 -0.37 79.49 -0.13 80.09 0.04C80.7 0.21 81.31 0.29 81.91 0.29C82.73 0.29 83.45 0.18 84.05 -0.04C84.66 -0.26 85.15 -0.56 85.53 -0.94C85.92 -1.31 86.21 -1.73 86.39 -2.21C86.58 -2.68 86.68 -3.17 86.68 -3.66C86.68 -4.25 86.58 -4.74 86.38 -5.14C86.19 -5.53 85.94 -5.86 85.63 -6.13C85.33 -6.41 84.99 -6.65 84.6 -6.85C84.22 -7.04 83.84 -7.24 83.47 -7.44C83.04 -7.63 82.63 -7.83 82.23 -8.03C81.84 -8.22 81.49 -8.44 81.19 -8.67C80.89 -8.9 80.65 -9.16 80.47 -9.44C80.29 -9.73 80.2 -10.08 80.2 -10.49C80.2 -11.02 80.42 -11.45 80.84 -11.76C81.27 -12.07 81.78 -12.23 82.37 -12.23C83.14 -12.23 83.75 -12 84.21 -11.54C84.68 -11.09 84.97 -10.38 85.1 -9.42L86.11 -9.42L85.93 -12.52C85.3 -12.86 84.74 -13.09 84.23 -13.22C83.72 -13.34 83.2 -13.4 82.66 -13.4C81.97 -13.4 81.35 -13.3 80.8 -13.08C80.26 -12.87 79.8 -12.59 79.43 -12.25C79.05 -11.9 78.77 -11.49 78.57 -11.05C78.37 -10.6 78.28 -10.15 78.28 -9.68C78.28 -8.76 78.59 -7.99 79.23 -7.37C79.86 -6.75 80.68 -6.19 81.7 -5.67C82.07 -5.48 82.42 -5.28 82.74 -5.1C83.06 -4.91 83.35 -4.71 83.6 -4.49C83.83 -4.28 84.02 -4.04 84.16 -3.76C84.3 -3.48 84.37 -3.16 84.37 -2.78C84.37 -2.3 84.21 -1.85 83.89 -1.44C83.57 -1.03 82.98 -0.83 82.13 -0.83C81.63 -0.83 81.2 -0.93 80.86 -1.12C80.51 -1.32 80.21 -1.58 79.96 -1.9C79.73 -2.22 79.54 -2.59 79.4 -3C79.26 -3.41 79.16 -3.83 79.1 -4.25Z M92.11 -3.77L92.11 -11.18L96.36 -11.18L96.36 -12.65L92.11 -12.65L92.11 -15.89L90.93 -15.89C90.73 -14.75 90.42 -13.86 89.98 -13.22C89.54 -12.57 88.87 -12.14 87.96 -11.9L87.96 -11.18L89.81 -11.18L89.81 -2.49C89.81 -1.58 90.06 -0.89 90.55 -0.41C91.05 0.06 91.74 0.29 92.61 0.29C93.33 0.29 94.01 0.12 94.66 -0.21C95.31 -0.55 95.9 -1 96.44 -1.55L95.9 -2.33C95.58 -2.02 95.16 -1.77 94.62 -1.58C94.09 -1.38 93.69 -1.28 93.44 -1.28C93.05 -1.28 92.73 -1.45 92.48 -1.78C92.23 -2.11 92.11 -2.77 92.11 -3.77Z M99.78 -7.97L107.25 -7.97C107.43 -7.97 107.57 -7.98 107.68 -8C107.78 -8.02 107.85 -8.05 107.89 -8.11C107.94 -8.16 107.97 -8.24 107.98 -8.35C107.99 -8.45 108 -8.61 108 -8.8C107.98 -9.59 107.83 -10.27 107.54 -10.85C107.26 -11.43 106.89 -11.9 106.45 -12.28C106 -12.65 105.49 -12.93 104.92 -13.12C104.35 -13.31 103.79 -13.4 103.23 -13.4C102.41 -13.4 101.65 -13.24 100.95 -12.91C100.24 -12.58 99.64 -12.1 99.14 -11.48C98.62 -10.85 98.22 -10.09 97.94 -9.19C97.65 -8.29 97.51 -7.27 97.51 -6.13C97.51 -5.22 97.65 -4.37 97.92 -3.6C98.2 -2.82 98.6 -2.14 99.12 -1.55C99.61 -0.98 100.21 -0.53 100.89 -0.2C101.58 0.13 102.33 0.29 103.13 0.29C104.25 0.29 105.25 -0.01 106.12 -0.63C107 -1.24 107.71 -2.03 108.26 -3L107.41 -3.5C106.93 -2.92 106.38 -2.44 105.76 -2.09C105.15 -1.73 104.44 -1.55 103.64 -1.55C102.49 -1.55 101.59 -1.98 100.91 -2.85C100.23 -3.71 99.86 -4.81 99.78 -6.13C99.75 -6.61 99.73 -7.02 99.74 -7.36C99.75 -7.7 99.77 -7.9 99.78 -7.97ZM105.05 -9.15L99.94 -9.15C100.09 -10.06 100.43 -10.8 100.96 -11.37C101.5 -11.94 102.22 -12.23 103.13 -12.23C103.89 -12.23 104.5 -11.94 104.95 -11.38C105.39 -10.82 105.62 -10.25 105.62 -9.68C105.62 -9.45 105.58 -9.31 105.5 -9.24C105.42 -9.18 105.27 -9.15 105.05 -9.15Z M113.69 -10.81C113.69 -11.2 113.7 -11.62 113.72 -12.07C113.74 -12.51 113.78 -12.95 113.83 -13.38L112.84 -13.38C112.41 -13 111.95 -12.72 111.45 -12.52C110.95 -12.32 110.41 -12.18 109.84 -12.09L109.84 -11.26C110.56 -11.26 110.99 -11.14 111.15 -10.9C111.31 -10.66 111.39 -10.1 111.39 -9.23L111.39 -3.02C111.39 -2.59 111.37 -2.25 111.33 -1.99C111.28 -1.73 111.19 -1.54 111.05 -1.42C110.9 -1.29 110.69 -1.21 110.42 -1.18C110.14 -1.14 109.76 -1.12 109.28 -1.12L109.28 -0.13C109.67 -0.15 110.21 -0.16 110.89 -0.17C111.56 -0.18 112.27 -0.19 113 -0.19C113.71 -0.19 114.4 -0.18 115.06 -0.17C115.72 -0.16 116.25 -0.15 116.64 -0.13L116.64 -1.12C115.96 -1.12 115.43 -1.15 115.05 -1.19C114.66 -1.24 114.36 -1.32 114.15 -1.44C113.95 -1.59 113.83 -1.78 113.78 -2.03C113.72 -2.28 113.69 -2.61 113.69 -3.02L113.69 -8.64C113.69 -8.96 113.76 -9.27 113.9 -9.55C114.03 -9.84 114.2 -10.08 114.42 -10.27C114.63 -10.49 114.85 -10.66 115.09 -10.78C115.32 -10.91 115.53 -10.97 115.73 -10.97C115.89 -10.97 116.02 -10.93 116.13 -10.85C116.24 -10.77 116.35 -10.68 116.48 -10.59C116.6 -10.5 116.75 -10.42 116.92 -10.35C117.09 -10.28 117.31 -10.25 117.57 -10.25C117.93 -10.25 118.26 -10.39 118.58 -10.69C118.89 -10.98 119.05 -11.34 119.05 -11.77C119.05 -12.36 118.84 -12.78 118.44 -13.03C118.04 -13.28 117.65 -13.4 117.28 -13.4C116.69 -13.4 116.06 -13.14 115.38 -12.63C114.7 -12.11 114.14 -11.5 113.69 -10.81Z"></path></g><g id="SvgjsG3707" class="ZReSsVTndK" transform="translate(-0.8378641871264498, 68.54103939828333) scale(0.5322045074575978)" light-content="true" non-strokable="false" fill="#07179b"><path d="M22.848 64.637l8.488-9.281-11.062 2.965 2.57 6.316zm16.293-7.492L24.942 72.668l-3.43 19.156 2.348.422a3.487 3.487 0 0 1-1.23 6.863l-11.555-2.07a3.487 3.487 0 0 1 1.23-6.864l2.348.422 3.425-19.133L1.82 31.534a3.572 3.572 0 0 1-.19-1.93 3.487 3.487 0 0 1 4.046-2.816l46.391 8.309a3.483 3.483 0 0 1 1.957 5.781zm.965-11.375l4.508-4.926-33.926-6.074 6.93 17.023zm33.336 11.16L45.587 24.05a3.492 3.492 0 0 1 2.242-5.722l46.621-6.523a3.492 3.492 0 0 1 3.937 2.98 3.463 3.463 0 0 1-.277 1.91l-17.754 39.27 2.695 19.258 2.36-.328a3.492 3.492 0 1 1 .957 6.918l-11.63 1.63a3.492 3.492 0 1 1-.956-6.919l2.348-.328-2.696-19.262zm-8.27-20.566l10.68 12.609 4.211-9.317-15.656-4.195zM55.016 24.376l1.461 1.722 26.508 7.106 6.149-13.602-34.121 4.777zm-20.465-6.66a3.499 3.499 0 0 1 0 4.949 3.499 3.499 0 0 1-4.949 0l-8.34-8.34a3.499 3.499 0 0 1 0-4.95 3.499 3.499 0 0 1 4.95 0zm-.777-13.367a3.5 3.5 0 1 1 7 0v5.964a3.5 3.5 0 1 1-7 0zm14.98 10.117a3.49 3.49 0 0 1-4.922-.301 3.49 3.49 0 0 1 .3-4.922l6.673-5.902a3.49 3.49 0 0 1 4.922.3 3.49 3.49 0 0 1-.301 4.922z"></path></g><g id="SvgjsG3708" class="BdpyWMAtvD" transform="translate(218.52736987112036, 151.63919433069557) scale(0.7696918850713733)" light-content="true" non-strokable="false" fill="#af0247"><path d="M73.84 62.84c-.79-.96-2.422-2.66-4.2-2.66-.69 0-1.35.148-1.98.449-2.308 1.102-3.3 3.871-2.21 6.18 1.148 2.422 6.84 7.969 10.011 10.922 3.86-3.531 9.04-8.692 10.102-10.91 1.102-2.309.102-5.09-2.21-6.18-.63-.3-1.29-.45-1.981-.45-1.79 0-3.41 1.68-4.191 2.63-.45.539-1.672 2.25-1.672 2.25.004 0-1.227-1.692-1.668-2.23z" fill-rule="evenodd"></path><path d="M49.289 69.25h-.262l.09-2.5c.79.031 3.05-.121 4.059-1.09.32-.308.468-.68.468-1.16 0-1.238-2.07-2.09-2.789-2.29l.004-2.41c.719-.199 2.79-1.058 2.79-2.288 0-.489-.15-.86-.481-1.18-1-.969-3.262-1.11-4.04-1.07l-.1-2.5c.398-.012 3.921-.11 5.87 1.761.82.782 1.25 1.82 1.25 2.98 0 1.54-.941 2.7-2.07 3.5 1.129.802 2.07 1.95 2.07 3.5 0 1.15-.43 2.18-1.238 2.962-1.719 1.644-4.68 1.785-5.621 1.785z"></path><path d="M66.66 72.488A27.864 27.864 0 0 1 50 78c-15.441 0-28-12.56-28-28s12.559-28 28-28 28 12.559 28 28c0 3.66-.71 7.16-2 10.37 1.262-1.308 3-2.55 5.059-2.66.613-2.472.941-5.05.941-7.71 0-17.648-14.352-32-32-32S18 32.352 18 50s14.352 32 32 32c7.3 0 14.039-2.461 19.43-6.602a79.331 79.331 0 0 1-2.77-2.91z"></path><path d="M32.578 46.191c1.012-.379 2.68-.828 4.922-.828 2.238 0 3.922.45 4.922.828h.238l.84-3.18c-.23-.129-2.379-1.32-6-1.32s-5.77 1.191-6 1.32l.84 3.18zM66 44.5c0 4.668-7 4.668-7 0s7-4.668 7 0"></path></g><g id="SvgjsG3709" class="wcmRK4ei0U" transform="translate(-1.7649968310052637, 162.60217036329163) scale(0.561992424879172)" light-content="true" non-strokable="false" fill="#8b12aa"><path d="M65.766 45.047a6.172 6.172 0 0 0 6.164-6.164c0-3.399-2.765-6.164-6.164-6.164s-6.164 2.765-6.164 6.164a6.17 6.17 0 0 0 6.164 6.164zm0-10.141a3.983 3.983 0 0 1 3.977 3.977c0 2.191-1.786 3.976-3.977 3.976s-3.977-1.785-3.977-3.976a3.978 3.978 0 0 1 3.977-3.977zm22.012 46.973c-2.906-1.707-5.852-4.117-8.086-6.61-2.094-2.34-4.64-5.953-4.906-9.882V55.184c0-.531.258-.965.726-1.215 2.207-1.188 4.707-3.125 6.368-4.941 2.425-2.653 5.082-7.086 3.964-13.172a4.357 4.357 0 0 0-1.82-2.817 4.385 4.385 0 0 0-6.8 4.398c.468 2.555-.723 4.5-1.805 5.68-1.828 1.996-3.871 3.188-5.465 3.188h-6.336c-6.734 0-11.137 2.144-15.207 7.406-1.77 2.29-3.082 4.313-4.555 7.89a4.388 4.388 0 0 0 2.387 5.72 4.388 4.388 0 0 0 5.719-2.387c2.035-4.942 4.183-6.922 6.23-8.38v9.5a4.68 4.68 0 0 1-.336 1.79c-1.91 4.894-2.265 10.141-2.23 13.684.035 3.422.457 6.793 1.227 9.738a4.757 4.757 0 0 0 2.21 2.93 4.779 4.779 0 0 0 3.633.508 4.757 4.757 0 0 0 2.93-2.211 4.753 4.753 0 0 0 .508-3.633c-.633-2.434-1.043-4.75-1.22-6.879-.288-3.504-.144-6.363 1.458-9.785.016-.031.02-.035.055-.035s.039.004.054.031c.2.379.39.758.586 1.129 1.543 2.984 3 5.809 5.371 8.473 2.72 3.058 6.246 5.87 10.473 8.355a4.76 4.76 0 0 0 3.637.508 4.757 4.757 0 0 0 2.93-2.21 4.76 4.76 0 0 0 .508-3.638 4.74 4.74 0 0 0-2.207-2.93zm-.184 5.453a2.584 2.584 0 0 1-1.593 1.203 2.576 2.576 0 0 1-1.977-.277c-4.031-2.367-7.379-5.035-9.95-7.922-2.187-2.46-3.581-5.164-5.062-8.023-.195-.375-.39-.754-.59-1.137-.398-.762-1.183-1.227-2.043-1.207s-1.62.515-1.988 1.293c-1.805 3.848-1.969 7.137-1.656 10.895.187 2.254.617 4.695 1.281 7.25a2.576 2.576 0 0 1-.277 1.976 2.564 2.564 0 0 1-1.594 1.2 2.579 2.579 0 0 1-1.977-.278 2.584 2.584 0 0 1-1.203-1.593c-.722-2.778-1.12-5.965-1.156-9.211-.035-3.348.3-8.297 2.082-12.867a6.82 6.82 0 0 0 .488-2.586V56.032c0-.727-.382-1.36-1.023-1.7a1.905 1.905 0 0 0-.898-.226c-.375 0-.75.113-1.082.34-2.34 1.605-5.036 3.805-7.438 9.644a2.195 2.195 0 0 1-4.059-1.668c1.38-3.347 2.606-5.242 4.262-7.382 3.649-4.72 7.43-6.555 13.477-6.555h6.336c3.168 0 6.004-2.727 7.078-3.899 2.031-2.218 2.84-4.832 2.34-7.554a2.198 2.198 0 0 1 3.406-2.203c.484.332.805.836.914 1.41.957 5.203-1.336 9.015-3.426 11.3-1.507 1.65-3.78 3.411-5.789 4.493a3.522 3.522 0 0 0-1.879 3.144V65.41c0 .024 0 .047.004.07.29 4.571 3.13 8.634 5.461 11.239 2.414 2.695 5.473 5.195 8.61 7.039a2.584 2.584 0 0 1 1.203 1.594c.168.68.07 1.382-.282 1.98zM29.52 46.496a6.172 6.172 0 0 0 6.165-6.164 6.172 6.172 0 0 0-6.165-6.164 6.172 6.172 0 0 0-6.164 6.164 6.17 6.17 0 0 0 6.164 6.164zm0-10.14a3.983 3.983 0 0 1 3.977 3.976 3.983 3.983 0 0 1-3.977 3.976 3.983 3.983 0 0 1-3.976-3.976 3.983 3.983 0 0 1 3.976-3.977zm8.036 29.89c-.938-1.25-1.282-2.664-1.028-4.203l.645-3.871a1.33 1.33 0 0 1 .918-1.082c2.37-.809 5.152-2.313 7.09-3.828 2.828-2.215 6.175-6.156 6.074-12.344a4.343 4.343 0 0 0-1.336-3.078 4.36 4.36 0 0 0-3.121-1.235 4.384 4.384 0 0 0-4.309 4.457c.043 2.598-1.449 4.32-2.71 5.309-1.266.992-2.231 1.527-3.708 1.527l-10.102-.004c-2.367 0-2.648-.047-4.726-1.676-1.262-.988-2.754-2.71-2.711-5.308a4.35 4.35 0 0 0-1.235-3.121 4.358 4.358 0 0 0-3.078-1.336h-.074a4.389 4.389 0 0 0-4.383 4.308c-.105 6.188 3.246 10.13 6.074 12.344 1.297 1.016 3.036 2.067 4.766 2.88a.704.704 0 0 1 .41.769c-.203 1.324-.453 2.973-.933 4.332-.727 2.055-1 4.469-.836 7.383.207 3.648.273 6.738-.864 10.496-.832 2.746-2.293 5.398-4.351 7.879a4.745 4.745 0 0 0-1.074 3.507 4.763 4.763 0 0 0 1.718 3.243 4.764 4.764 0 0 0 3.508 1.074 4.746 4.746 0 0 0 3.239-1.719c2.652-3.2 4.625-6.71 5.855-10.43 1.285-3.883 1.75-7.738 1.438-12.062l.28.39c1.993 2.759 3.567 4.934 4.516 8.333.88 3.148 1.028 6.484.442 9.922a4.809 4.809 0 0 0 3.945 5.523 4.81 4.81 0 0 0 5.524-3.941c.82-4.828.582-9.578-.707-14.113-1.055-3.692-2.79-7.168-5.157-10.324zm3.703 24.078a2.614 2.614 0 0 1-3.004 2.145c-.688-.114-1.29-.493-1.695-1.059s-.567-1.258-.454-1.941c.637-3.754.473-7.41-.492-10.871-1.05-3.778-2.812-6.211-4.847-9.028l-.844-1.172A1.919 1.919 0 0 0 26.45 69.7c.43 4.41.031 8.266-1.254 12.141-1.148 3.461-2.984 6.73-5.465 9.723-.441.535-1.07.867-1.761.934s-1.371-.141-1.907-.586a2.603 2.603 0 0 1-.351-3.665c2.242-2.707 3.844-5.613 4.758-8.64 1.238-4.098 1.172-7.383.953-11.25-.149-2.617.086-4.754.715-6.531.55-1.555.82-3.317 1.035-4.73a2.902 2.902 0 0 0-1.645-3.083c-1.59-.746-3.175-1.703-4.347-2.62-2.438-1.911-5.325-5.298-5.235-10.587.02-1.2 1-2.16 2.196-2.16h.035a2.196 2.196 0 0 1 2.16 2.23c-.047 2.766 1.18 5.211 3.547 7.067 2.515 1.972 3.281 2.144 6.078 2.144h10.105c2.09 0 3.484-.761 5.055-1.996 2.367-1.855 3.593-4.3 3.546-7.066a2.198 2.198 0 0 1 3.723-1.614c.422.407.66.957.668 1.543.09 5.29-2.797 8.676-5.234 10.586-1.758 1.38-4.29 2.747-6.446 3.48a3.514 3.514 0 0 0-2.367 2.794l-.644 3.871c-.36 2.152.125 4.129 1.433 5.875 2.207 2.941 3.82 6.18 4.797 9.613 1.207 4.22 1.426 8.645.66 13.152zM8.66 15.704c1.082.14 1.937.628 2.617 1.484l1.512 1.918a1.475 1.475 0 0 0 2.62-.723l.294-2.23c.14-1.083.629-1.938 1.484-2.618l1.918-1.512c.469-.367.668-.976.508-1.55a1.469 1.469 0 0 0-1.23-1.07l-2.231-.294c-1.086-.14-1.942-.629-2.617-1.484l-1.512-1.918a1.476 1.476 0 0 0-2.621.723L9.11 8.66c-.14 1.082-.63 1.938-1.485 2.617L5.707 12.79a1.465 1.465 0 0 0-.507 1.55c.156.575.64.993 1.23 1.071zm.32-2.712c1.309-1.035 2.082-2.394 2.297-4.05l.074-.555.465.59c1.035 1.308 2.394 2.082 4.05 2.3l.555.075-.59.464c-1.308 1.036-2.081 2.395-2.3 4.051l-.074.555-.465-.59c-1.035-1.309-2.395-2.082-4.051-2.3l-.555-.075zm85.551 2.598l-1.648-2.145c-.84-1.09-1.168-2.285-1.008-3.648l.344-2.918a1.544 1.544 0 0 0-.778-1.531 1.552 1.552 0 0 0-1.715.12l-2.144 1.65c-1.09.84-2.285 1.167-3.648 1.007l-2.918-.344a1.544 1.544 0 0 0-1.532.778 1.551 1.551 0 0 0 .121 1.714l1.649 2.145c.84 1.09 1.168 2.285 1.008 3.648l-.344 2.918a1.548 1.548 0 0 0 2.484 1.41l2.145-1.648c1.09-.84 2.285-1.168 3.648-1.008l2.918.344a1.544 1.544 0 0 0 1.531-.777 1.536 1.536 0 0 0-.113-1.715zm-4.074-.027c-1.934-.227-3.695.257-5.238 1.445l-.95.73.168-1.422c.227-1.933-.258-3.695-1.445-5.238l-.73-.95 1.421.169c1.934.226 3.696-.258 5.239-1.445l.949-.73-.168 1.421c-.227 1.934.258 3.695 1.445 5.238l.73.95zM45.196 26.536l2.078.859c1.012.418 1.71 1.11 2.144 2.113l.965 2.242c.235.543.766.891 1.356.891h.011a1.47 1.47 0 0 0 1.352-.914l.86-2.078c.417-1.012 1.109-1.711 2.113-2.145l2.242-.964c.547-.235.898-.77.89-1.368a1.47 1.47 0 0 0-.913-1.351l-2.079-.86c-1.011-.418-1.71-1.109-2.144-2.113l-.965-2.242a1.469 1.469 0 0 0-1.367-.89 1.473 1.473 0 0 0-1.352.91l-.86 2.078c-.417 1.011-1.109 1.71-2.112 2.144l-2.243.965a1.467 1.467 0 0 0-.89 1.367c.004.598.363 1.129.914 1.356zm3.086-1.676c1.53-.66 2.633-1.778 3.27-3.317l.214-.515.297.691c.66 1.531 1.777 2.633 3.316 3.27l.516.214-.691.297c-1.532.66-2.633 1.778-3.27 3.317l-.215.515-.297-.691c-.66-1.531-1.777-2.633-3.316-3.27l-.516-.214zm-24.355 2.01c-.516-.89.047-2.18 1.25-2.878.578-.332 1.195-.47 1.742-.426l.004-7.45c0-.382.273-.699.633-.765l8.566-2.465a.778.778 0 0 1 .969.754v8.926c.047.793-.5 1.695-1.442 2.238-1.207.695-2.601.54-3.117-.355-.515-.89.047-2.18 1.25-2.88.578-.331 1.2-.468 1.746-.425V14.64l-7.043 2.086v8.25c.051.797-.496 1.703-1.441 2.246-1.207.7-2.602.54-3.117-.351zm69.832 26.281v8.926c.047.793-.5 1.696-1.442 2.239-1.207.695-2.601.539-3.117-.356-.515-.89.047-2.18 1.25-2.879.578-.332 1.2-.469 1.746-.426v-6.503l-7.043 2.085v8.25c.051.797-.496 1.704-1.441 2.247-1.207.695-2.602.539-3.117-.356-.516-.89.046-2.18 1.25-2.879.578-.332 1.195-.469 1.742-.426v-7.449c0-.383.273-.7.633-.765l8.566-2.465a.778.778 0 0 1 .945.566c.02.063.028.13.028.192zM65.736 24.43c-.551-.957.047-2.335 1.34-3.085.617-.36 1.285-.504 1.87-.457V14.53c0-.336.196-.625.481-.758l1.906-1.082a.835.835 0 0 1 1.137.313.835.835 0 0 1-.313 1.136l-1.539.872v7.418c.04.843-.546 1.796-1.547 2.375-1.289.75-2.785.582-3.335-.375zM12.873 63.046l-1.54.872v7.418c.04.843-.546 1.796-1.546 2.375-1.293.746-2.79.578-3.344-.38-.55-.956.047-2.335 1.34-3.085.617-.36 1.285-.504 1.87-.457v-6.356c0-.336.2-.625.481-.758l1.906-1.082a.835.835 0 0 1 1.137.313.83.83 0 0 1-.304 1.14z" fill-rule="evenodd"></path></g></g></g></svg>